<svg width="55" height="49" viewBox="0 0 55 49" fill="none" xmlns="http://www.w3.org/2000/svg">
<path d="M6.875 49C4.98437 49 3.36646 48.5206 2.02125 47.5618C0.676041 46.6031 0.00229167 45.4491 0 44.1V4.9C0 3.5525 0.673749 2.39937 2.02125 1.4406C3.36875 0.481833 4.98667 0.00163333 6.875 0H48.125C50.0156 0 51.6347 0.4802 52.9822 1.4406C54.3297 2.401 55.0023 3.55413 55 4.9V44.1C55 45.4475 54.3274 46.6014 52.9822 47.5618C51.637 48.5222 50.0179 49.0016 48.125 49H6.875ZM24.0625 22.05L32.6562 18.375L41.25 22.05V4.9H24.0625V22.05Z" fill="white"/>
</svg>
