<svg width="55" height="56" viewBox="0 0 55 56" fill="none" xmlns="http://www.w3.org/2000/svg">
<path d="M27.5 0C42.6882 0 55 11.9037 55 26.5885C55 41.2733 42.6882 53.177 27.5 53.177C12.3118 53.177 0 41.2733 0 26.5885C0 11.9037 12.3118 0 27.5 0ZM27.5 10.6354C26.7707 10.6354 26.0712 10.9155 25.5555 11.4142C25.0397 11.9128 24.75 12.5891 24.75 13.2943V26.5885C24.7502 27.2936 25.04 27.9698 25.5557 28.4683L33.8058 36.4449C34.3244 36.9292 35.0191 37.1972 35.7401 37.1911C36.4611 37.1851 37.1509 36.9055 37.6608 36.4125C38.1706 35.9195 38.4598 35.2526 38.4661 34.5555C38.4724 33.8584 38.1952 33.1867 37.6942 32.6853L30.25 25.4877V13.2943C30.25 12.5891 29.9603 11.9128 29.4445 11.4142C28.9288 10.9155 28.2293 10.6354 27.5 10.6354Z" fill="white"/>
</svg>
