<svg width="113" height="120" viewBox="0 0 113 120" fill="none" xmlns="http://www.w3.org/2000/svg">
<path d="M32.77 0H80.23C98.31 0 113 15.6 113 34.8V85.2C113 94.4295 109.547 103.281 103.402 109.807C97.2563 116.334 88.9212 120 80.23 120H32.77C14.69 120 0 104.4 0 85.2V34.8C0 25.5705 3.45254 16.719 9.59811 10.1927C15.7437 3.66642 24.0789 0 32.77 0ZM31.64 12C26.2455 12 21.0719 14.2757 17.2574 18.3265C13.443 22.3773 11.3 27.8713 11.3 33.6V86.4C11.3 98.34 20.3965 108 31.64 108H81.36C86.7545 108 91.9281 105.724 95.7426 101.674C99.557 97.6227 101.7 92.1287 101.7 86.4V33.6C101.7 21.66 92.6035 12 81.36 12H31.64ZM86.1625 21C88.0356 21 89.832 21.7902 91.1564 23.1967C92.4809 24.6032 93.225 26.5109 93.225 28.5C93.225 30.4891 92.4809 32.3968 91.1564 33.8033C89.832 35.2098 88.0356 36 86.1625 36C84.2894 36 82.493 35.2098 81.1686 33.8033C79.8441 32.3968 79.1 30.4891 79.1 28.5C79.1 26.5109 79.8441 24.6032 81.1686 23.1967C82.493 21.7902 84.2894 21 86.1625 21ZM56.5 30C63.9924 30 71.1779 33.1607 76.4758 38.7868C81.7737 44.4129 84.75 52.0435 84.75 60C84.75 67.9565 81.7737 75.5871 76.4758 81.2132C71.1779 86.8393 63.9924 90 56.5 90C49.0076 90 41.8221 86.8393 36.5242 81.2132C31.2263 75.5871 28.25 67.9565 28.25 60C28.25 52.0435 31.2263 44.4129 36.5242 38.7868C41.8221 33.1607 49.0076 30 56.5 30ZM56.5 42C52.0046 42 47.6933 43.8964 44.5145 47.2721C41.3358 50.6477 39.55 55.2261 39.55 60C39.55 64.7739 41.3358 69.3523 44.5145 72.7279C47.6933 76.1036 52.0046 78 56.5 78C60.9954 78 65.3067 76.1036 68.4855 72.7279C71.6642 69.3523 73.45 64.7739 73.45 60C73.45 55.2261 71.6642 50.6477 68.4855 47.2721C65.3067 43.8964 60.9954 42 56.5 42Z" fill="white"/>
</svg>
