<svg width="114" height="114" viewBox="0 0 114 114" fill="none" xmlns="http://www.w3.org/2000/svg">
<path d="M73.625 66.5H69.8725L68.5425 65.2175C73.3588 59.6318 76.0057 52.5004 76 45.125C76 39.0185 74.1892 33.0492 70.7966 27.9718C67.404 22.8944 62.582 18.9371 56.9404 16.6002C51.2987 14.2634 45.0908 13.6519 39.1016 14.8433C33.1124 16.0346 27.611 18.9751 23.2931 23.2931C18.9751 27.611 16.0346 33.1124 14.8433 39.1016C13.6519 45.0908 14.2634 51.2987 16.6002 56.9404C18.9371 62.582 22.8944 67.404 27.9718 70.7966C33.0492 74.1892 39.0185 76 45.125 76C52.7725 76 59.8025 73.1975 65.2175 68.5425L66.5 69.8725V73.625L90.25 97.3275L97.3275 90.25L73.625 66.5ZM45.125 66.5C33.2975 66.5 23.75 56.9525 23.75 45.125C23.75 33.2975 33.2975 23.75 45.125 23.75C56.9525 23.75 66.5 33.2975 66.5 45.125C66.5 56.9525 56.9525 66.5 45.125 66.5Z" fill="white"/>
</svg>
