<svg width="134" height="95" viewBox="0 0 134 95" fill="none" xmlns="http://www.w3.org/2000/svg">
<path d="M53.6 67.8571L88.373 47.5L53.6 27.1429V67.8571ZM131.052 14.725C131.923 17.9143 132.526 22.1893 132.928 27.6179C133.397 33.0464 133.598 37.7286 133.598 41.8L134 47.5C134 62.3607 132.928 73.2857 131.052 80.275C129.377 86.3821 125.491 90.3179 119.461 92.0143C116.312 92.8964 110.55 93.5071 101.706 93.9143C92.996 94.3893 85.023 94.5929 77.653 94.5929L67 95C38.927 95 21.44 93.9143 14.539 92.0143C8.509 90.3179 4.623 86.3821 2.948 80.275C2.077 77.0857 1.474 72.8107 1.072 67.3821C0.603001 61.9536 0.402 57.2714 0.402 53.2L0 47.5C0 32.6393 1.072 21.7143 2.948 14.725C4.623 8.61786 8.509 4.68214 14.539 2.98571C17.688 2.10357 23.45 1.49286 32.294 1.08571C41.004 0.610713 48.977 0.407142 56.347 0.407142L67 0C95.073 0 112.56 1.08571 119.461 2.98571C125.491 4.68214 129.377 8.61786 131.052 14.725Z" fill="white"/>
</svg>
